<svg width="15" height="20" viewBox="0 0 15 20" fill="none" xmlns="http://www.w3.org/2000/svg">
<path fill-rule="evenodd" clip-rule="evenodd" d="M7.73156 18.5866C8.80979 17.564 9.80769 16.4526 10.7156 15.263C12.6281 12.7516 13.7916 10.2756 13.8703 8.07388C13.9015 7.17908 13.7598 6.2869 13.4536 5.45063C13.1475 4.61436 12.6832 3.85116 12.0886 3.20661C11.4939 2.56207 10.7811 2.0494 9.99261 1.69924C9.20414 1.34908 8.35623 1.16861 7.49953 1.16861C6.64283 1.16861 5.79493 1.34908 5.00646 1.69924C4.21799 2.0494 3.50513 2.56207 2.91047 3.20661C2.31582 3.85116 1.85156 4.61436 1.54543 5.45063C1.2393 6.2869 1.09759 7.17908 1.12875 8.07388C1.20844 10.2756 2.37281 12.7516 4.28437 15.263C5.19231 16.4526 6.19021 17.564 7.26844 18.5866C7.37219 18.6846 7.44938 18.7558 7.5 18.8002L7.73156 18.5866ZM6.80813 19.7281C6.80813 19.7281 0 13.7354 0 7.83872C0 5.75976 0.790176 3.76595 2.1967 2.29591C3.60322 0.825863 5.51088 0 7.5 0C9.48912 0 11.3968 0.825863 12.8033 2.29591C14.2098 3.76595 15 5.75976 15 7.83872C15 13.7354 8.19187 19.7281 8.19187 19.7281C7.81313 20.0926 7.18969 20.0887 6.80813 19.7281ZM7.5 10.5823C8.19619 10.5823 8.86387 10.2932 9.35616 9.7787C9.84844 9.26419 10.125 8.56635 10.125 7.83872C10.125 7.11108 9.84844 6.41325 9.35616 5.89873C8.86387 5.38422 8.19619 5.09517 7.5 5.09517C6.80381 5.09517 6.13613 5.38422 5.64384 5.89873C5.15156 6.41325 4.875 7.11108 4.875 7.83872C4.875 8.56635 5.15156 9.26419 5.64384 9.7787C6.13613 10.2932 6.80381 10.5823 7.5 10.5823ZM7.5 11.7581C6.50544 11.7581 5.55161 11.3451 4.84835 10.6101C4.14509 9.8751 3.75 8.8782 3.75 7.83872C3.75 6.79924 4.14509 5.80233 4.84835 5.06731C5.55161 4.33229 6.50544 3.91936 7.5 3.91936C8.49456 3.91936 9.44839 4.33229 10.1517 5.06731C10.8549 5.80233 11.25 6.79924 11.25 7.83872C11.25 8.8782 10.8549 9.8751 10.1517 10.6101C9.44839 11.3451 8.49456 11.7581 7.5 11.7581Z" fill="#FF83A2"/>
</svg>
