<svg width="24" height="21" viewBox="0 0 24 21" fill="none" xmlns="http://www.w3.org/2000/svg">
<path d="M22.908 7.3995e-05C23.1942 -0.0034281 23.47 0.117507 23.6748 0.336306C23.8795 0.555105 23.9965 0.853869 24 1.16695V19.833C23.9965 20.1461 23.8795 20.4449 23.6748 20.6637C23.47 20.8825 23.1942 21.0034 22.908 20.9999H1.092C0.805767 21.0034 0.52997 20.8825 0.325211 20.6637C0.120452 20.4449 0.00348072 20.1461 0 19.833L0 1.16826C0.00156713 1.01313 0.0310567 0.85985 0.0867846 0.717182C0.142513 0.574513 0.223387 0.445249 0.324791 0.336771C0.426194 0.228292 0.54614 0.142725 0.677778 0.0849538C0.809417 0.0271831 0.95017 -0.00165931 1.092 7.3995e-05H22.908ZM6.4992 8.42285L1.6272 13.7283V19.2634H22.368V17.3825L18.528 13.2872L15.1956 16.3495C14.9964 16.5026 14.8044 16.5704 14.6196 16.5529C14.425 16.5309 14.2412 16.4443 14.0928 16.3049L6.4992 8.42285ZM22.3632 1.74711H1.6344V11.237L5.9616 6.52356C6.11192 6.39306 6.29769 6.32102 6.4896 6.3188C6.6752 6.3188 6.8392 6.38005 6.9816 6.50256L14.6988 14.4935L18.0648 11.409C18.2096 11.2866 18.387 11.2193 18.57 11.2173C18.7516 11.2198 18.9276 11.2866 19.0716 11.4076L22.362 14.9056L22.3632 1.74711ZM18.3276 4.23968C19.2312 4.23968 19.9632 5.02329 19.9632 5.98934C19.9632 6.9554 19.2312 7.739 18.3276 7.739C17.4228 7.739 16.6908 6.9554 16.6908 5.98934C16.6908 5.02329 17.4228 4.23968 18.3276 4.23968Z" fill="black"/>
</svg>
