<svg width="18" height="17" viewBox="0 0 18 17" fill="none" xmlns="http://www.w3.org/2000/svg">
<path d="M9 0.5C9.09727 0.500078 9.20135 0.525804 9.31836 0.591797C9.39956 0.637619 9.46312 0.705338 9.51074 0.818359L9.51172 0.819336L11.4834 5.44531L11.6006 5.72168L11.8994 5.74805L16.9775 6.1875C17.155 6.21338 17.2467 6.26368 17.293 6.30371C17.3629 6.36435 17.4222 6.44685 17.4658 6.56543C17.5029 6.6662 17.5097 6.76481 17.4863 6.87207C17.4688 6.95265 17.4229 7.04007 17.3145 7.13574L13.458 10.4307L13.2266 10.6289L13.2959 10.9258L14.4521 15.8379C14.4824 15.9683 14.4667 16.0533 14.4355 16.1182C14.3814 16.2307 14.3087 16.3198 14.2148 16.3916C14.1376 16.4506 14.0454 16.4876 13.9238 16.498C13.8545 16.504 13.7844 16.495 13.708 16.4609L13.6299 16.418L13.6182 16.4111L9.25586 13.8125L9 13.6602L8.74414 13.8125L4.38086 16.4111L4.37012 16.417C4.26136 16.4854 4.16681 16.5058 4.07324 16.498C3.95295 16.4881 3.86181 16.4515 3.78516 16.3926C3.69012 16.3195 3.6167 16.2295 3.5625 16.1172C3.53194 16.0538 3.51655 15.9694 3.54688 15.8379L4.70312 10.9258L4.77344 10.6289L4.54102 10.4307L0.68457 7.13672H0.685547C0.577335 7.04035 0.531394 6.95246 0.513672 6.87109C0.490152 6.76306 0.496691 6.66438 0.533203 6.56445C0.575979 6.44745 0.635785 6.3654 0.707031 6.30371C0.754045 6.26302 0.844634 6.21271 1.01953 6.1875L6.09961 5.74805L6.39844 5.72168L6.51562 5.44531L8.4873 0.819336L8.48828 0.818359C8.53589 0.705366 8.59949 0.637618 8.68066 0.591797C8.79785 0.525702 8.9026 0.5 9 0.5Z" stroke="#FF83A2"/>
</svg>
